<svg width="417" height="99" viewBox="0 0 417 99" fill="none" xmlns="http://www.w3.org/2000/svg">
<path d="M84.4151 97.336C84.0631 97.688 83.2271 97.776 81.9071 97.6C80.5871 97.512 79.5311 96.896 78.7391 95.752C78.1231 94.52 77.7711 93.112 77.6831 91.528C77.5951 89.944 77.5951 87.744 77.6831 84.928C78.2111 81.848 79.0911 77.8 80.3231 72.784C81.5551 67.768 82.9191 62.18 84.4151 56.02C85.9991 49.772 87.5831 43.392 89.1671 36.88C89.9591 33.8 90.5751 31.204 91.0151 29.092C91.5431 26.98 91.8951 25.396 92.0711 24.34C92.3351 23.196 92.4671 22.624 92.4671 22.624C92.3791 22.8 92.2471 22.976 92.0711 23.152C91.9831 23.328 91.8951 23.504 91.8071 23.68C91.7191 23.856 91.6311 24.032 91.5431 24.208C91.5431 24.208 91.3671 24.516 91.0151 25.132C90.7511 25.748 90.1351 26.804 89.1671 28.3C88.4631 29.356 87.8031 30.588 87.1871 31.996C86.5711 33.404 85.5151 35.252 84.0191 37.54C82.6111 40.18 81.0271 43.216 79.2671 46.648C77.5071 50.08 76.0111 52.808 74.7791 54.832C74.1631 55.8 73.5911 56.636 73.0631 57.34C72.6231 58.044 72.3151 58.616 72.1391 59.056C71.7871 60.024 71.2151 61.212 70.4231 62.62C69.6311 64.028 68.7071 65.392 67.6511 66.712C67.1231 67.504 66.4191 68.428 65.5391 69.484C64.7471 70.54 64.0431 71.508 63.4271 72.388C62.8111 73.18 62.5031 73.576 62.5031 73.576C62.3271 74.104 61.7551 74.94 60.7871 76.084C59.8191 77.228 58.6311 78.504 57.2231 79.912C55.9031 81.232 54.5391 82.464 53.1311 83.608C50.0511 86.072 47.4991 87.612 45.4751 88.228C43.5391 88.844 41.2951 88.096 38.7431 85.984C37.5991 84.576 36.6751 83.168 35.9711 81.76C35.2671 80.264 34.9151 78.24 34.9151 75.688C34.9151 73.136 35.3551 69.572 36.2351 64.996C36.8511 62.092 37.5111 59.012 38.2151 55.756C39.0071 52.5 39.7991 49.376 40.5911 46.384C41.3831 43.304 42.0871 40.664 42.7031 38.464C43.4071 36.176 43.8911 34.592 44.1551 33.712C44.4191 31.512 44.4631 30.368 44.2871 30.28C44.1111 30.104 43.6711 30.588 42.9671 31.732C42.3511 32.7 41.2071 34.724 39.5351 37.804C37.8631 40.884 35.9711 44.492 33.8591 48.628C31.8351 52.764 29.8551 56.9 27.9191 61.036C24.3111 67.724 21.2751 73.312 18.8111 77.8C16.3471 82.288 14.3231 85.896 12.7391 88.624C11.1551 91.264 9.92308 93.244 9.04308 94.564C8.25108 95.972 7.63508 96.94 7.19508 97.468C6.84308 98.084 6.57908 98.48 6.40308 98.656C5.08308 98.568 3.93908 97.952 2.97108 96.808C2.00308 95.664 1.21108 94.3 0.595079 92.716C0.419079 91.836 0.287079 90.912 0.199079 89.944C0.111079 88.976 0.199079 87.92 0.463079 86.776C0.815079 85.544 1.34308 84.224 2.04708 82.816C3.19108 80.528 4.29108 78.592 5.34708 77.008C6.40308 75.424 7.06308 74.456 7.32708 74.104C7.76708 73.488 8.11908 72.828 8.38308 72.124C8.64708 71.42 8.82308 70.76 8.91108 70.144C9.35108 69.616 10.0111 68.516 10.8911 66.844C11.8591 65.172 12.8271 63.368 13.7951 61.432C14.4991 60.288 15.4671 58.704 16.6991 56.68C17.9311 54.568 19.2511 52.324 20.6591 49.948C22.0671 47.484 23.2991 45.24 24.3551 43.216C28.2271 36.264 31.3071 30.72 33.5951 26.584C35.8831 22.36 37.5111 19.676 38.4791 18.532C39.0951 18.092 39.6231 17.256 40.0631 16.024C40.5911 14.704 41.0311 13.736 41.3831 13.12C42.6151 10.656 43.8471 8.632 45.0791 7.048C46.3991 5.376 47.5431 4.54 48.5111 4.54C49.2151 4.54 50.0951 4.804 51.1511 5.33199C52.2951 5.86 53.3951 6.608 54.4511 7.576C55.4191 8.72 56.2991 10.26 57.0911 12.196C57.9711 14.044 58.1471 16.508 57.6191 19.588C57.5311 20.996 57.3111 22.712 56.9591 24.736C56.6071 26.672 56.2551 28.608 55.9031 30.544C55.5511 32.48 55.1991 34.108 54.8471 35.428C54.1431 39.388 53.3511 43.172 52.4711 46.78C51.6791 50.3 50.9311 53.556 50.2271 56.548C49.5231 59.54 48.9511 62.18 48.5111 64.468C48.0711 66.668 47.7631 68.472 47.5871 69.88C47.4991 71.288 47.6751 72.212 48.1151 72.652C48.3791 72.74 48.7311 72.652 49.1711 72.388C49.6991 72.036 50.0951 71.684 50.3591 71.332C50.8871 70.628 51.3711 69.924 51.8111 69.22C52.2511 68.516 52.8231 67.636 53.5271 66.58C54.9351 64.644 56.3871 62.532 57.8831 60.244C59.4671 57.868 61.3151 54.964 63.4271 51.532C65.6271 48.012 68.2231 43.7 71.2151 38.596C74.2071 33.404 77.8591 26.98 82.1711 19.324C84.1951 16.244 86.1311 13.164 87.9791 10.084C89.8271 7.004 91.4991 4.628 92.9951 2.95599C94.3151 1.548 95.9431 1.064 97.8791 1.504C99.9031 1.944 101.751 3.04399 103.423 4.80399C105.095 6.564 106.019 8.72 106.195 11.272C106.283 12.504 106.019 14.704 105.403 17.872C104.875 20.952 104.127 24.428 103.159 28.3C102.191 32.172 101.091 35.956 99.8591 39.652C99.5951 41.148 99.1551 43.128 98.5391 45.592C97.9231 48.056 97.2631 50.564 96.5591 53.116C95.8551 55.668 95.1951 57.956 94.5791 59.98C93.9631 62.972 93.4351 65.348 92.9951 67.108C92.6431 68.868 92.4671 70.892 92.4671 73.18C91.6751 74.588 91.1471 76.612 90.8831 79.252C90.6191 81.892 90.4871 84.62 90.4871 87.436C90.1351 90.868 89.3871 93.288 88.2431 94.696C87.1871 96.104 86.4831 96.764 86.1311 96.676C85.4271 96.412 84.8551 96.632 84.4151 97.336ZM130.711 90.736C129.831 89.856 129.127 88.668 128.599 87.172C128.071 85.588 127.543 83.784 127.015 81.76C126.839 81.056 126.751 80.264 126.751 79.384C126.839 78.504 126.839 77.8 126.751 77.272C126.487 77.888 126.047 78.68 125.431 79.648C124.903 80.616 124.375 81.32 123.847 81.76C123.495 82.112 122.703 82.816 121.471 83.872C120.239 84.84 119.007 85.632 117.775 86.248C114.871 88.096 112.275 88.976 109.987 88.888C107.787 88.712 105.851 87.568 104.179 85.456C102.771 84.312 101.627 82.86 100.747 81.1C99.867 79.34 99.691 77.228 100.219 74.764C100.395 71.684 100.835 68.692 101.539 65.788C102.243 62.796 103.695 58.836 105.895 53.908C107.743 50.3 109.151 47.484 110.119 45.46C111.087 43.436 111.703 42.248 111.967 41.896C113.287 41.456 114.915 41.5 116.851 42.028C118.787 42.468 119.843 43.304 120.019 44.536C120.547 45.416 120.547 47.088 120.019 49.552C119.491 51.928 118.435 54.656 116.851 57.736C115.619 60.728 114.431 63.632 113.287 66.448C112.231 69.264 111.571 71.64 111.307 73.576C111.131 75.512 111.659 76.7 112.891 77.14C113.683 77.58 114.827 77.536 116.323 77.008C117.907 76.48 119.755 74.896 121.867 72.256C123.979 69.616 126.223 65.436 128.599 59.716C129.303 57.956 129.831 56.416 130.183 55.096C130.535 53.688 130.755 52.148 130.843 50.476C130.667 49.42 130.931 48.32 131.635 47.176C132.427 46.032 133.351 45.152 134.407 44.536C134.759 44.096 135.243 43.7 135.859 43.348C136.475 42.908 136.871 42.908 137.047 43.348L139.159 43.216C139.511 43.128 139.907 43.48 140.347 44.272C140.787 45.064 141.227 45.636 141.667 45.988C142.635 46.78 143.075 48.496 142.987 51.136C142.899 53.776 141.843 57.472 139.819 62.224C138.147 65.832 137.003 68.56 136.387 70.408C135.859 72.256 135.551 74.06 135.463 75.82C135.463 77.404 135.595 78.768 135.859 79.912C136.123 80.968 136.915 82.068 138.235 83.212C139.203 83.828 139.731 84.884 139.819 86.38C139.995 87.788 140.039 89.02 139.951 90.076C139.775 90.868 139.071 91.396 137.839 91.66C136.695 92.012 135.419 92.1 134.011 91.924C132.691 91.748 131.591 91.352 130.711 90.736ZM160.193 90.208C158.433 90.032 157.025 89.592 155.969 88.888C155.001 88.096 154.253 87.128 153.725 85.984C153.021 85.192 152.581 84.576 152.405 84.136C152.317 83.696 152.317 83.3 152.405 82.948C152.845 82.948 153.241 82.948 153.593 82.948C153.945 82.86 154.165 82.684 154.253 82.42C154.253 82.156 154.385 81.98 154.649 81.892C155.001 81.804 155.353 81.804 155.705 81.892C157.377 81.98 159.401 81.408 161.777 80.176C164.241 78.944 166.925 77.228 169.829 75.028C172.733 72.74 175.637 70.276 178.541 67.636C180.829 64.644 182.413 62.444 183.293 61.036C184.261 59.628 184.745 58.572 184.745 57.868C184.833 57.076 184.657 56.284 184.217 55.492C183.865 54.788 183.029 54.436 181.709 54.436C180.389 54.436 178.365 55.316 175.637 57.076C171.853 59.452 168.817 61.652 166.529 63.676C164.241 65.7 162.129 67.988 160.193 70.54C159.489 71.42 158.697 72.388 157.817 73.444C157.025 74.412 156.321 75.248 155.705 75.952C155.177 76.656 154.913 77.008 154.913 77.008C154.913 77.36 154.385 77.8 153.329 78.328C152.361 78.856 151.525 79.12 150.821 79.12C150.469 78.944 149.985 78.636 149.369 78.196C148.841 77.668 148.489 77.008 148.313 76.216C147.521 75.6 146.861 75.072 146.333 74.632C145.805 74.104 145.541 73.268 145.541 72.124C145.541 71.42 145.629 70.54 145.805 69.484C146.069 68.428 146.421 67.064 146.861 65.392C147.389 63.104 147.961 60.728 148.577 58.264C149.193 55.712 149.765 53.556 150.293 51.796C150.909 49.948 151.349 48.936 151.613 48.76C151.613 48.76 151.789 48.364 152.141 47.572C152.493 46.78 152.669 45.856 152.669 44.8C152.845 43.744 153.109 42.82 153.461 42.028C153.901 41.236 154.121 40.664 154.121 40.312C154.473 40.048 155.001 38.992 155.705 37.144C156.409 35.296 157.289 32.876 158.345 29.884C158.345 29.62 158.653 28.784 159.269 27.376C159.885 25.88 160.633 24.164 161.513 22.228C162.393 20.204 163.273 18.136 164.153 16.024C165.121 13.824 165.913 11.888 166.529 10.216C167.585 8.72 168.465 7.224 169.169 5.728C169.961 4.144 170.665 3.21999 171.281 2.95599C171.721 2.86799 172.469 3.04399 173.525 3.48399C174.669 3.92399 175.813 4.49599 176.957 5.2C178.101 5.904 178.893 6.608 179.333 7.312C179.597 7.752 179.729 8.192 179.729 8.632C179.817 9.072 179.641 9.82 179.201 10.876C178.761 11.844 178.013 13.472 176.957 15.76C175.901 17.96 174.405 21.084 172.469 25.132C170.005 30.412 168.069 34.812 166.661 38.332C165.341 41.852 164.241 44.888 163.361 47.44C162.569 49.992 161.733 52.412 160.853 54.7L160.193 57.604L163.625 53.776C164.505 52.896 165.429 52.06 166.397 51.268C167.365 50.476 168.421 49.684 169.565 48.892C170.269 48.364 171.193 47.836 172.337 47.308C173.569 46.692 174.757 46.164 175.901 45.724C177.045 45.284 177.881 45.02 178.409 44.932C178.673 44.844 179.553 44.668 181.049 44.404C182.633 44.052 184.173 43.876 185.669 43.876C187.605 43.876 189.277 44.58 190.685 45.988C192.181 47.308 193.501 48.936 194.645 50.872C195.613 52.72 195.965 55.096 195.701 58C195.437 60.816 194.689 63.236 193.457 65.26C193.017 65.612 192.577 66.096 192.137 66.712C191.697 67.24 191.477 67.68 191.477 68.032C191.389 68.648 190.597 69.924 189.101 71.86C187.605 73.708 186.109 75.468 184.613 77.14C183.029 78.812 181.093 80.484 178.805 82.156C176.517 83.74 174.229 85.192 171.941 86.512C169.741 87.744 167.849 88.624 166.265 89.152C165.561 89.24 164.549 89.416 163.229 89.68C161.909 89.856 160.897 90.032 160.193 90.208ZM209.606 89.152C208.902 89.328 207.978 89.416 206.834 89.416C205.69 89.328 204.678 89.196 203.798 89.02C203.006 88.756 202.61 88.492 202.61 88.228C202.61 87.788 202.39 87.568 201.95 87.568C201.95 87.568 201.466 87.216 200.498 86.512C199.53 85.72 198.65 85.148 197.858 84.796C197.066 83.564 196.538 82.156 196.274 80.572C196.098 78.9 196.626 75.996 197.858 71.86C197.946 69.044 198.738 66.096 200.234 63.016C201.73 59.848 203.622 56.768 205.91 53.776C208.198 50.784 210.574 48.144 213.038 45.856C215.502 43.48 217.702 41.72 219.638 40.576C220.87 39.344 222.498 38.684 224.522 38.596C226.634 38.508 228.482 38.904 230.066 39.784C230.946 40.224 231.914 41.104 232.97 42.424C234.026 43.744 235.038 45.152 236.006 46.648C236.974 48.056 237.722 49.332 238.25 50.476C238.514 51.444 238.734 52.324 238.91 53.116C239.174 53.82 239.35 54.7 239.438 55.756C239.526 56.812 239.438 58.396 239.174 60.508C238.734 62.092 238.338 63.72 237.986 65.392C237.722 66.976 237.59 68.604 237.59 70.276C237.414 71.948 237.59 73.136 238.118 73.84C238.734 74.544 239.614 74.588 240.758 73.972C241.814 73.444 242.914 73.4 244.058 73.84C245.202 74.192 245.994 74.896 246.434 75.952C246.962 76.92 246.83 78.196 246.038 79.78C245.51 80.924 244.674 82.024 243.53 83.08C242.386 84.136 241.11 85.016 239.702 85.72C238.294 86.336 236.93 86.644 235.61 86.644C234.642 86.644 233.674 86.292 232.706 85.588C231.738 84.796 230.858 83.74 230.066 82.42C229.274 81.1 228.614 79.648 228.086 78.064L227.294 75.028L222.542 79.384C221.398 80.616 220.254 81.76 219.11 82.816C218.054 83.784 217.394 84.488 217.13 84.928C216.69 85.72 215.81 86.424 214.49 87.04C213.258 87.656 211.63 88.36 209.606 89.152ZM213.17 76.48C214.666 75.6 215.942 74.544 216.998 73.312C218.142 72.08 219.242 70.716 220.298 69.22C221.354 67.636 222.498 65.964 223.73 64.204C225.226 62.18 226.282 60.552 226.898 59.32C227.602 58.088 228.13 56.768 228.482 55.36C228.13 54.392 227.646 53.38 227.03 52.324C226.414 51.18 225.798 50.564 225.182 50.476C223.95 50.476 222.454 51.224 220.694 52.72C219.022 54.216 217.174 56.372 215.15 59.188C214.798 59.628 214.358 60.332 213.83 61.3C213.302 62.268 212.774 63.192 212.246 64.072C211.806 64.864 211.498 65.392 211.322 65.656C211.058 66.008 210.662 66.844 210.134 68.164C209.694 69.396 209.298 70.672 208.946 71.992C208.594 73.224 208.418 74.104 208.418 74.632C208.418 75.16 208.462 75.732 208.55 76.348C208.726 76.964 209.166 77.36 209.87 77.536C210.574 77.712 211.674 77.36 213.17 76.48ZM260.446 91.792C257.63 91.792 255.034 91.176 252.658 89.944C250.37 88.624 248.522 87.04 247.114 85.192C245.706 83.256 245.002 81.408 245.002 79.648C245.002 78.856 245.134 78.284 245.398 77.932C245.75 77.58 246.234 77.404 246.85 77.404C247.29 77.492 247.818 77.712 248.434 78.064C249.05 78.416 249.666 78.812 250.282 79.252C251.69 80.22 253.23 80.836 254.902 81.1C256.574 81.364 258.07 81.276 259.39 80.836C260.71 80.308 261.458 79.516 261.634 78.46C261.634 78.108 261.458 77.36 261.106 76.216C260.754 75.072 260.314 73.972 259.786 72.916C257.586 69.66 256.222 66.58 255.694 63.676C255.166 60.684 254.814 57.692 254.638 54.7C254.638 53.468 255.21 52.104 256.354 50.608C257.498 49.024 258.906 47.484 260.578 45.988C262.426 44.404 264.45 42.908 266.65 41.5C268.938 40.092 271.182 38.904 273.382 37.936C275.582 36.968 277.43 36.396 278.926 36.22C280.51 36.22 282.182 36.308 283.942 36.484C285.79 36.572 287.022 36.88 287.638 37.408C288.87 38.376 290.014 39.96 291.07 42.16C292.126 44.36 292.654 46.208 292.654 47.704C292.654 48.408 292.258 49.288 291.466 50.344C290.762 51.312 290.102 52.412 289.486 53.644C289.134 54.26 288.826 54.92 288.562 55.624C288.298 56.328 287.99 57.032 287.638 57.736C287.11 58.968 286.142 59.496 284.734 59.32C283.414 59.056 282.182 58.352 281.038 57.208C279.894 55.976 279.322 54.568 279.322 52.984C279.322 51.664 279.718 50.52 280.51 49.552C281.302 48.584 281.698 47.924 281.698 47.572C281.698 47.396 281.61 47.264 281.434 47.176C281.258 47.088 280.95 47.044 280.51 47.044C279.894 47.044 278.882 47.308 277.474 47.836C276.154 48.276 274.746 48.936 273.25 49.816C271.754 50.696 270.39 51.752 269.158 52.984C268.278 53.952 267.53 55.008 266.914 56.152C266.386 57.208 266.122 58.352 266.122 59.584C266.122 60.816 266.342 62.268 266.782 63.94C267.31 65.524 267.882 66.844 268.498 67.9C268.674 68.076 268.938 68.56 269.29 69.352C269.73 70.056 270.214 70.936 270.742 71.992C273.998 78.68 274.526 83.652 272.326 86.908C270.214 90.164 266.254 91.792 260.446 91.792ZM337.747 90.076C336.075 90.516 334.315 90.824 332.467 91C330.707 91.264 329.167 90.736 327.847 89.416C327.055 88.184 326.351 87.084 325.735 86.116C325.119 85.148 324.723 83.432 324.547 80.968C324.459 79.296 324.547 77.492 324.811 75.556C325.163 73.532 325.295 72.08 325.207 71.2C325.911 67.944 326.087 65.612 325.735 64.204C325.471 62.796 325.119 62.092 324.679 62.092C323.711 61.916 322.171 62.62 320.059 64.204C318.035 65.788 315.615 68.032 312.799 70.936C310.071 73.752 307.123 76.964 303.955 80.572C302.283 82.86 301.051 84.576 300.259 85.72C299.555 86.776 299.027 87.304 298.675 87.304C297.091 87.304 295.639 87.04 294.319 86.512C292.999 85.984 291.943 85.236 291.151 84.268C290.359 83.3 289.875 82.288 289.699 81.232C289.699 80.88 289.919 79.956 290.359 78.46C290.799 76.876 291.327 75.072 291.943 73.048C292.559 71.024 293.131 69.132 293.659 67.372C294.275 65.612 294.715 64.38 294.979 63.676C295.771 61.388 296.695 58.616 297.751 55.36C298.895 52.016 299.907 49.068 300.787 46.516C301.139 45.372 301.755 43.744 302.635 41.632C303.515 39.432 304.395 37.232 305.275 35.032C306.155 32.832 306.771 31.204 307.123 30.148C307.387 29.444 307.871 28.212 308.575 26.452C309.279 24.604 310.027 22.58 310.819 20.38C311.699 18.18 312.491 16.156 313.195 14.308C313.987 12.372 314.515 10.964 314.779 10.084C314.691 9.292 314.735 8.588 314.911 7.972C315.175 7.268 315.439 6.74 315.703 6.388C316.055 6.388 316.451 6.388 316.891 6.388C317.331 6.3 317.551 6.256 317.551 6.256C317.551 6.07999 318.123 6.25599 319.267 6.784C320.499 7.312 321.687 7.972 322.831 8.764C324.063 9.468 324.679 10.084 324.679 10.612C325.119 11.756 325.163 13.252 324.811 15.1C324.459 16.86 323.535 19.544 322.039 23.152C321.071 24.56 320.103 26.672 319.135 29.488C318.255 32.304 317.375 34.68 316.495 36.616C316.143 37.232 315.615 38.332 314.911 39.916C314.295 41.412 313.547 43.216 312.667 45.328C311.875 47.352 311.083 49.508 310.291 51.796C309.499 54.084 308.795 56.328 308.179 58.528C307.299 60.64 306.991 62.048 307.255 62.752C307.519 63.456 308.575 62.664 310.423 60.376C312.887 57.736 315.175 55.36 317.287 53.248C319.487 51.136 321.511 49.464 323.359 48.232C325.295 46.912 327.011 46.34 328.507 46.516C329.299 46.692 330.311 47.264 331.543 48.232C332.863 49.112 334.095 50.168 335.239 51.4C336.471 52.544 337.263 53.644 337.615 54.7C337.967 55.932 338.187 57.12 338.275 58.264C338.451 59.408 338.495 61.036 338.407 63.148C338.319 65.172 338.099 68.208 337.747 72.256C337.219 75.248 336.867 77.404 336.691 78.724C336.515 79.956 336.559 80.836 336.823 81.364C337.175 81.892 337.703 82.464 338.407 83.08C339.727 84.136 340.255 85.412 339.991 86.908C339.727 88.316 338.979 89.372 337.747 90.076ZM351.46 86.644C351.108 86.644 350.36 86.38 349.216 85.852C348.072 85.324 347.5 85.06 347.5 85.06C347.5 84.708 347.368 84.268 347.104 83.74C346.928 83.212 346.84 82.772 346.84 82.42C346.224 82.068 345.608 81.496 344.992 80.704C344.376 79.912 344.244 79.032 344.596 78.064C345.124 77.096 345.828 75.644 346.708 73.708C347.676 71.684 348.688 69.44 349.744 66.976C350.888 64.424 351.944 61.96 352.912 59.584C353.88 57.208 354.716 55.184 355.42 53.512C356.124 51.752 356.52 50.696 356.608 50.344C356.608 49.992 356.652 49.376 356.74 48.496C356.916 47.616 357.488 46.868 358.456 46.252C359.6 45.46 360.788 45.416 362.02 46.12C363.252 46.824 364.308 48.056 365.188 49.816C366.068 51.488 366.508 53.468 366.508 55.756C366.508 56.372 366.068 57.956 365.188 60.508C364.308 62.972 363.12 65.92 361.624 69.352C360.216 72.784 358.632 76.26 356.872 79.78C355.552 82.332 354.54 84.136 353.836 85.192C353.22 86.16 352.428 86.644 351.46 86.644ZM369.412 36.088C368.356 36.088 367.08 35.604 365.584 34.636C364.176 33.668 362.9 32.436 361.756 30.94C360.612 29.444 360.04 27.86 360.04 26.188C360.04 25.748 360.436 24.956 361.228 23.812C362.02 22.58 362.768 21.392 363.472 20.248C364.264 19.104 364.66 18.444 364.66 18.268C365.364 18.268 366.2 18.4 367.168 18.664C368.136 18.928 368.928 19.236 369.544 19.588C370.512 21.788 371.788 23.68 373.372 25.264C374.956 26.76 375.748 28.476 375.748 30.412C375.748 32.348 375.264 33.8 374.296 34.768C373.328 35.648 371.7 36.088 369.412 36.088ZM371.827 87.436C371.035 86.82 370.155 86.028 369.187 85.06C368.307 84.092 367.999 82.728 368.263 80.968C368.527 78.504 368.879 76.348 369.319 74.5C369.759 72.564 370.287 70.364 370.903 67.9C371.079 66.844 371.519 65.04 372.223 62.488C373.015 59.936 373.939 57.164 374.995 54.172C376.051 51.18 377.151 48.364 378.295 45.724C379.439 42.996 380.451 40.972 381.331 39.652C382.299 38.772 383.707 38.332 385.555 38.332C387.491 38.332 388.811 38.684 389.515 39.388C390.483 40.18 390.791 41.588 390.439 43.612C390.087 45.548 388.855 48.584 386.743 52.72C386.303 53.776 385.731 54.92 385.027 56.152C384.411 57.296 383.971 58.264 383.707 59.056C383.443 59.76 383.531 60.068 383.971 59.98C384.499 59.012 385.467 57.912 386.875 56.68C388.283 55.36 389.779 54.084 391.363 52.852C392.947 51.62 394.443 50.52 395.851 49.552C397.259 48.584 398.227 47.968 398.755 47.704C399.459 47.264 400.251 46.912 401.131 46.648C402.099 46.296 402.759 46.032 403.111 45.856C405.135 44.888 407.335 44.536 409.711 44.8C412.175 44.976 413.671 45.724 414.199 47.044C414.287 47.748 414.551 48.276 414.991 48.628C415.519 48.98 415.783 49.156 415.783 49.156C416.135 49.156 416.311 49.288 416.311 49.552C416.399 49.816 416.443 49.948 416.443 49.948C416.443 50.564 415.827 51.444 414.595 52.588C413.451 53.732 412.175 54.348 410.767 54.436C409.623 54.524 408.611 54.744 407.731 55.096C406.851 55.448 405.795 55.888 404.563 56.416C401.219 58.352 398.183 60.068 395.455 61.564C392.815 63.06 390.087 65.348 387.271 68.428C386.655 69.132 385.995 69.792 385.291 70.408C384.587 71.024 383.883 71.904 383.179 73.048C382.739 73.488 382.299 74.456 381.859 75.952C381.419 77.448 381.023 78.9 380.671 80.308C380.407 81.628 380.275 82.42 380.275 82.684C380.275 82.684 380.143 83.124 379.879 84.004C379.615 84.796 379.175 85.588 378.559 86.38C377.503 87.788 376.447 88.668 375.391 89.02C374.423 89.372 373.235 88.844 371.827 87.436Z" fill="white"/>
</svg>
